<svg viewBox="0 0 740 520" xmlns="http://www.w3.org/2000/svg" font-family="'Courier New', monospace">
  <defs>
    <linearGradient id="bg" x1="0" y1="0" x2="1" y2="1">
      <stop offset="0%" stop-color="#f8fafc"/>
      <stop offset="100%" stop-color="#f1f5f9"/>
    </linearGradient>
  </defs>

  <rect width="740" height="520" fill="url(#bg)" rx="12"/>
  <rect width="740" height="520" fill="none" stroke="#e2e8f0" stroke-width="1.5" rx="12"/>

  <text x="370" y="30" text-anchor="middle" fill="#1e293b" font-size="14" font-weight="bold" letter-spacing="0.5">Layer Structure Comparison — Experiment 2</text>
  <text x="370" y="46" text-anchor="middle" fill="#94a3b8" font-size="9">Animal Diary App (FFmpeg 포함 환경)</text>

  <!-- ========== BEFORE (JDK) ========== -->
  <rect x="12" y="56" width="228" height="444" rx="10" fill="#fff5f5" stroke="#fca5a5" stroke-width="1.5"/>
  <text x="126" y="76" text-anchor="middle" fill="#dc2626" font-size="10" font-weight="bold" letter-spacing="1">✗  BEFORE  (JDK)</text>

  <rect x="20" y="86" width="212" height="58" rx="6" fill="#ffffff" stroke="#fca5a5" stroke-width="1.2"/>
  <rect x="20" y="86" width="5" height="58" rx="2" fill="#dc2626"/>
  <text x="33" y="100" fill="#94a3b8" font-size="8" letter-spacing="0.5">LAYER 0  ·  FROM</text>
  <text x="33" y="116" fill="#1e293b" font-size="9" font-weight="bold">eclipse-temurin:17-jdk</text>
  <text x="33" y="130" fill="#dc2626" font-size="8">컴파일러 전체 포함</text>
  <text x="33" y="142" fill="#dc2626" font-size="8">불필요하게 무거움</text>

  <rect x="20" y="150" width="212" height="56" rx="6" fill="#ffffff" stroke="#fca5a5" stroke-width="1.2"/>
  <rect x="20" y="150" width="5" height="56" rx="2" fill="#f87171"/>
  <text x="33" y="164" fill="#94a3b8" font-size="8" letter-spacing="0.5">LAYER 1  ·  RUN</text>
  <text x="33" y="179" fill="#1e293b" font-size="9">apt-get install ffmpeg</text>
  <text x="33" y="193" fill="#dc2626" font-size="8">추천 패키지까지 전부 설치</text>
  <text x="33" y="204" fill="#dc2626" font-size="8">불필요한 종속 패키지 포함</text>

  <rect x="20" y="212" width="212" height="54" rx="6" fill="#ffffff" stroke="#e2e8f0" stroke-width="1.2"/>
  <rect x="20" y="212" width="5" height="54" rx="2" fill="#fb923c"/>
  <text x="33" y="226" fill="#94a3b8" font-size="8" letter-spacing="0.5">LAYER 2  ·  COPY</text>
  <text x="33" y="241" fill="#1e293b" font-size="9">*.jar  →  app.jar</text>
  <text x="33" y="255" fill="#dc2626" font-size="8">jar 전체 단일 레이어</text>
  <text x="33" y="266" fill="#dc2626" font-size="8">캐시 비효율</text>

  <rect x="20" y="272" width="212" height="44" rx="6" fill="#ffffff" stroke="#e2e8f0" stroke-width="1.2"/>
  <rect x="20" y="272" width="5" height="44" rx="2" fill="#fbbf24"/>
  <text x="33" y="287" fill="#94a3b8" font-size="8" letter-spacing="0.5">CONFIG  ·  ENTRYPOINT</text>
  <text x="33" y="302" fill="#dc2626" font-size="8">root 권한 실행</text>
  <text x="33" y="313" fill="#dc2626" font-size="8">USER 지정 없음</text>

  <rect x="36" y="332" width="180" height="52" rx="8" fill="#fee2e2" stroke="#fca5a5" stroke-width="1.5"/>
  <text x="126" y="350" text-anchor="middle" fill="#6b7280" font-size="9">Total Image Size</text>
  <text x="126" y="374" text-anchor="middle" fill="#dc2626" font-size="22" font-weight="bold">497.0 MB</text>

  <!-- ========== AFTER 1 (JRE) ========== -->
  <rect x="252" y="56" width="228" height="444" rx="10" fill="#f0fff4" stroke="#86efac" stroke-width="1.5"/>
  <text x="366" y="76" text-anchor="middle" fill="#16a34a" font-size="10" font-weight="bold" letter-spacing="1">✓  AFTER 1  (JRE)</text>

  <rect x="260" y="86" width="212" height="58" rx="6" fill="#ffffff" stroke="#86efac" stroke-width="1.2"/>
  <rect x="260" y="86" width="5" height="58" rx="2" fill="#16a34a"/>
  <text x="273" y="100" fill="#94a3b8" font-size="8" letter-spacing="0.5">LAYER 0  ·  FROM</text>
  <text x="273" y="116" fill="#1e293b" font-size="9" font-weight="bold">eclipse-temurin:17-jre</text>
  <text x="273" y="130" fill="#16a34a" font-size="8">런타임만 포함</text>
  <text x="273" y="142" fill="#16a34a" font-size="8">JDK 불필요 도구 제거</text>

  <rect x="260" y="150" width="212" height="56" rx="6" fill="#ffffff" stroke="#86efac" stroke-width="1.2"/>
  <rect x="260" y="150" width="5" height="56" rx="2" fill="#4ade80"/>
  <text x="273" y="164" fill="#94a3b8" font-size="8" letter-spacing="0.5">LAYER 1  ·  RUN</text>
  <text x="273" y="179" fill="#1e293b" font-size="9">apt-get install ffmpeg</text>
  <text x="273" y="193" fill="#16a34a" font-size="8">--no-install-recommends</text>
  <text x="273" y="204" fill="#16a34a" font-size="8">불필요한 추천 패키지 제외</text>

  <rect x="260" y="212" width="212" height="54" rx="6" fill="#fffbeb" stroke="#fde68a" stroke-width="1.5"/>
  <rect x="260" y="212" width="5" height="54" rx="2" fill="#f59e0b"/>
  <text x="273" y="226" fill="#94a3b8" font-size="8" letter-spacing="0.5">LAYER 2  ·  COPY</text>
  <text x="273" y="241" fill="#1e293b" font-size="9">*.jar  →  app.jar</text>
  <text x="273" y="255" fill="#b45309" font-size="8">코드 변경 시 이 레이어부터</text>
  <text x="273" y="266" fill="#b45309" font-size="8">전체 재빌드 발생</text>

  <rect x="260" y="272" width="212" height="44" rx="6" fill="#ffffff" stroke="#86efac" stroke-width="1.2"/>
  <rect x="260" y="272" width="5" height="44" rx="2" fill="#86efac"/>
  <text x="273" y="287" fill="#94a3b8" font-size="8" letter-spacing="0.5">LAYER 3  ·  RUN + USER</text>
  <text x="273" y="302" fill="#1e293b" font-size="9">groupadd / useradd / USER</text>
  <text x="273" y="313" fill="#16a34a" font-size="8">Privilege Escalation 방어</text>

  <rect x="276" y="332" width="180" height="52" rx="8" fill="#dcfce7" stroke="#86efac" stroke-width="1.5"/>
  <text x="366" y="350" text-anchor="middle" fill="#6b7280" font-size="9">Total Image Size</text>
  <text x="366" y="373" text-anchor="middle" fill="#16a34a" font-size="19" font-weight="bold">308.8 MB <tspan font-size="11" fill="#15803d">↓ 37.9%</tspan></text>

  <!-- ========== AFTER 2 (Multi-stage) ========== -->
  <rect x="492" y="56" width="236" height="444" rx="10" fill="#eff6ff" stroke="#93c5fd" stroke-width="1.5"/>
  <text x="610" y="76" text-anchor="middle" fill="#1d4ed8" font-size="10" font-weight="bold" letter-spacing="0.5">✓  AFTER 2  (Multi-stage)</text>

  <!-- Stage 1 -->
  <rect x="500" y="86" width="220" height="16" rx="4" fill="#bfdbfe"/>
  <text x="610" y="98" text-anchor="middle" fill="#1e40af" font-size="8" font-weight="bold">── STAGE 1 : Builder (JDK) ──</text>

  <rect x="500" y="106" width="220" height="44" rx="6" fill="#ffffff" stroke="#93c5fd" stroke-width="1.2"/>
  <rect x="500" y="106" width="5" height="44" rx="2" fill="#60a5fa"/>
  <text x="513" y="120" fill="#94a3b8" font-size="8">LAYER 0  ·  FROM AS builder</text>
  <text x="513" y="135" fill="#1e293b" font-size="9">eclipse-temurin:17-jdk</text>
  <text x="513" y="147" fill="#3b82f6" font-size="8">최종 이미지에 미포함</text>

  <rect x="500" y="155" width="220" height="44" rx="6" fill="#ffffff" stroke="#93c5fd" stroke-width="1.2"/>
  <rect x="500" y="155" width="5" height="44" rx="2" fill="#93c5fd"/>
  <text x="513" y="169" fill="#94a3b8" font-size="8">LAYER 1  ·  COPY + RUN</text>
  <text x="513" y="184" fill="#1d4ed8" font-size="9" font-weight="bold">layertools extract</text>
  <text x="513" y="196" fill="#3b82f6" font-size="8">jar → 4개 레이어로 분해</text>

  <!-- Divider -->
  <line x1="504" y1="208" x2="716" y2="208" stroke="#93c5fd" stroke-width="1" stroke-dasharray="4,3"/>
  <text x="610" y="221" text-anchor="middle" fill="#64748b" font-size="8">▼ 아래부터만 최종 이미지에 포함</text>

  <!-- Stage 2 -->
  <rect x="500" y="230" width="220" height="16" rx="4" fill="#bfdbfe"/>
  <text x="610" y="242" text-anchor="middle" fill="#1e40af" font-size="8" font-weight="bold">── STAGE 2 : Final (JRE) ──</text>

  <rect x="500" y="250" width="220" height="36" rx="6" fill="#ffffff" stroke="#93c5fd" stroke-width="1.2"/>
  <rect x="500" y="250" width="5" height="36" rx="2" fill="#16a34a"/>
  <text x="513" y="264" fill="#94a3b8" font-size="8">LAYER 2  ·  FROM</text>
  <text x="513" y="278" fill="#1e293b" font-size="9">eclipse-temurin:17-jre</text>

  <rect x="500" y="291" width="220" height="36" rx="6" fill="#ffffff" stroke="#93c5fd" stroke-width="1.2"/>
  <rect x="500" y="291" width="5" height="36" rx="2" fill="#4ade80"/>
  <text x="513" y="305" fill="#94a3b8" font-size="8">LAYER 3  ·  RUN</text>
  <text x="513" y="319" fill="#1e293b" font-size="9">ffmpeg + groupadd + useradd</text>

  <rect x="500" y="332" width="220" height="50" rx="6" fill="#dbeafe" stroke="#2563eb" stroke-width="1.5"/>
  <rect x="500" y="332" width="5" height="50" rx="2" fill="#2563eb"/>
  <text x="513" y="347" fill="#94a3b8" font-size="8">LAYER 4–7  ·  COPY (4개 레이어)</text>
  <text x="513" y="362" fill="#1d4ed8" font-size="8" font-weight="bold">deps / spring-boot-loader</text>
  <text x="513" y="375" fill="#1d4ed8" font-size="8" font-weight="bold">snapshot-deps / application</text>

  <rect x="516" y="398" width="180" height="52" rx="8" fill="#dbeafe" stroke="#93c5fd" stroke-width="1.5"/>
  <text x="606" y="416" text-anchor="middle" fill="#6b7280" font-size="9">Total Image Size</text>
  <text x="606" y="439" text-anchor="middle" fill="#1d4ed8" font-size="19" font-weight="bold">308.6 MB <tspan font-size="11" fill="#1e40af">↓ 37.9%</tspan></text>

  <text x="370" y="510" text-anchor="middle" fill="#94a3b8" font-size="9">* N=3 runs · 베이스 이미지 pull 포함 완전 초기화 · Ubuntu 서버 환경</text>
</svg>
